Coordinates
version=1
nRows=11
nColumns=63
inDegrees=yes

Units are S.I. units (second, meters, Newtons, ...)
If the header above contains a line with 'inDegrees', this indicates whether rotational values are in degrees (yes) or radians (no).

endheader
time	pelvis_tilt	pelvis_list	pelvis_rotation	pelvis_tx	pelvis_ty	pelvis_tz	hip_flexion_r	hip_adduction_r	hip_rotation_r	knee_angle_r	knee_angle_r_beta	ankle_angle_r	subtalar_angle_r	mtp_angle_r	hip_flexion_l	hip_adduction_l	hip_rotation_l	knee_angle_l	knee_angle_l_beta	ankle_angle_l	subtalar_angle_l	mtp_angle_l	L5_S1_Flex_Ext	L5_S1_Lat_Bending	L5_S1_axial_rotation	L4_L5_Flex_Ext	L4_L5_Lat_Bending	L4_L5_axial_rotation	L3_L4_Flex_Ext	L3_L4_Lat_Bending	L3_L4_axial_rotation	L2_L3_Flex_Ext	L2_L3_Lat_Bending	L2_L3_axial_rotation	L1_L2_Flex_Ext	L1_L2_Lat_Bending	L1_L2_axial_rotation	L1_T12_Flex_Ext	L1_T12_Lat_Bending	L1_T12_axial_rotation	Abs_r3	Abs_r2	Abs_r1	Abs_t1	Abs_t2	neck_flexion	neck_bending	neck_rotation	arm_flex_r	arm_add_r	arm_rot_r	elbow_flex_r	pro_sup_r	wrist_flex_r	wrist_dev_r	arm_flex_l	arm_add_l	arm_rot_l	elbow_flex_l	pro_sup_l	wrist_flex_l	wrist_dev_l
      3.70000000	      3.84681014	     -4.16425738	     94.86580356	      0.04942861	      0.96670784	      0.49417411	     15.20617725	     -1.09319028	     -8.41303681	     27.78424397	      0.48492654	     31.03468538	     -5.90297702	      0.00000000	      5.60008136	     -2.76166056	    -17.36832260	     14.41648077	      0.25161506	     38.52350962	     12.52573502	      0.00000000	     -0.36600815	      0.81505956	      0.38935604	     -0.67971373	      1.08402922	      0.41369079	     -0.60131479	      1.98173582	      0.41369079	     -0.41831071	      1.98173582	      0.34068653	     -0.33987517	      1.66206946	      0.31635178	     -0.20913706	      1.26252726	      0.29201703	     -2.61435960	      9.22011678	      2.16548147	      0.00000000	      0.00000000	    -19.28599000	      0.69220557	    -17.69562509	    -22.37318964	    -24.61857643	    -12.26448926	    121.46493731	     72.79976396	     -0.70898271	      5.94035074	     19.07174290	    -11.87514030	     24.22463160	    116.89381889	     70.09538340	      1.56334927	      8.61055733
      3.71666667	      3.77754508	     -4.31734954	     94.68336657	      0.04976985	      0.96641861	      0.49481824	     15.38490882	     -1.20527629	     -8.56114848	     27.74850669	      0.48430280	     30.68357399	     -5.85894984	      0.00000000	      5.71956962	     -2.67934929	    -17.47852746	     14.28968522	      0.24940206	     38.39642902	     12.55051152	      0.00000000	     -0.37417876	      0.78950369	      0.40052298	     -0.69488738	      1.05003990	      0.42555567	     -0.61473829	      1.91959926	      0.42555567	     -0.42764891	      1.91959926	      0.35045761	     -0.34746240	      1.60995592	      0.32542492	     -0.21380574	      1.22294121	      0.30039223	     -2.67272147	      8.93102360	      2.22758866	      0.00000000	      0.00000000	    -19.81652931	      0.54893603	    -17.41954681	    -22.31743395	    -24.77557919	    -12.00988650	    120.61961364	     73.10732007	     -1.38642534	      5.62575342	     19.64930807	    -12.47578929	     25.35927515	    115.42039583	     70.55611473	      2.12739965	      9.42699406
      3.73333333	      3.35596610	     -4.46328081	     94.18062230	      0.05044069	      0.96587779	      0.49525554	     15.63898028	     -1.67103139	     -8.44976958	     27.91543197	      0.48721620	     30.89146297	     -5.35072727	      0.00000000	      5.66001666	     -2.22019359	    -18.01936909	     13.95745322	      0.24360351	     38.28636961	     12.69282783	      0.00000000	     -0.39520066	      0.72322611	      0.51315934	     -0.73392715	      0.96189072	      0.54523180	     -0.64927517	      1.75845195	      0.54523180	     -0.45167484	      1.75845195	      0.44901442	     -0.36698334	      1.47480267	      0.41694196	     -0.22581766	      1.12027724	      0.38486951	     -2.82287881	      8.18127835	      2.85403830	      0.00000000	      0.00000000	    -19.99554880	      0.87481797	    -17.59299600	    -23.43467039	    -24.62478700	    -11.99357643	    122.68322144	     74.91393697	     -5.21188165	      2.70104701	     20.21103350	    -12.89853791	     26.11602941	    113.13885654	     71.09077117	      5.18971638	     13.62617413
      3.75000000	      3.32144396	     -4.64621538	     93.69140218	      0.05044642	      0.96543561	      0.49556419	     15.79594932	     -1.79350210	     -8.53941403	     27.77177450	      0.48470890	     31.08535001	     -4.32973184	      0.00000000	      5.77456563	     -2.16509003	    -18.58762636	     13.84618847	      0.24166158	     38.32748274	     12.80482999	      0.00000000	     -0.40405157	      0.72820939	      0.49987274	     -0.75036416	      0.96851849	      0.53111479	     -0.66381632	      1.77056831	      0.53111479	     -0.46179053	      1.77056831	      0.43738865	     -0.37520228	      1.48496459	      0.40614660	     -0.23087506	      1.12799634	      0.37490456	     -2.88609993	      8.23765025	      2.78014223	      0.00000000	      0.00000000	    -20.33745960	      0.24333659	    -16.88445715	    -24.12246124	    -25.04841599	    -12.10605680	    126.98118550	     76.42615554	     -7.84683922	      1.75535479	     20.14641121	    -13.32193686	     26.38402415	    110.86278124	     69.10217294	      7.22847649	     18.05860377
      3.76666667	      3.27556892	     -4.84261130	     93.37297572	      0.05006707	      0.96493977	      0.49600279	     15.94077027	     -1.97717761	     -8.72626968	     27.58184038	      0.48139393	     31.51253452	     -3.13270196	      0.00000000	      5.93479999	     -2.07769748	    -19.02098126	     13.75248526	      0.24002615	     38.42895956	     13.06833064	      0.00000000	     -0.41269076	      0.73527607	      0.43429668	     -0.76640801	      0.97791717	      0.46144022	     -0.67800965	      1.78775024	      0.46144022	     -0.47166427	      1.78775024	      0.38000959	     -0.38322464	      1.49937496	      0.35286605	     -0.23581150	      1.13894263	      0.32572251	     -2.94780882	      8.31758997	      2.41542782	      0.00000000	      0.00000000	    -20.49280791	     -0.08625684	    -16.15110368	    -24.41106845	    -25.25432500	    -12.46547344	    132.25290761	     76.86660467	     -9.74248654	      1.70740766	     19.92105656	    -13.61108250	     26.52962813	    109.19258339	     66.60521280	      7.40635361	     21.37123512
      3.78333333	      3.14172366	     -4.99797722	     93.14411534	      0.04983452	      0.96465219	      0.49666007	     16.05775986	     -2.08312801	     -8.31835123	     27.33457839	      0.47707839	     31.93668959	     -2.74749076	      0.00000000	      6.09131933	     -1.88158316	    -19.17255339	     13.67133499	      0.23860981	     38.48609340	     13.09429223	      0.00000000	     -0.43395720	      0.72598507	      0.32488998	     -0.80590192	      0.96556014	      0.34519560	     -0.71294829	      1.76516009	      0.34519560	     -0.49596968	      1.76516009	      0.28427873	     -0.40297266	      1.48042875	      0.26397311	     -0.24796314	      1.12455087	      0.24366748	     -3.09971289	      8.21248828	      1.80694058	      0.00000000	      0.00000000	    -20.47834287	     -0.10230110	    -15.61206701	    -23.92872240	    -25.12479477	    -12.76072658	    136.53396951	     76.81096034	     -9.72755371	      1.13151054	     19.21948558	    -13.78072503	     26.11690913	    108.77260733	     66.23071230	      7.03252680	     21.63908972
      3.80000000	      3.20052965	     -5.40470501	     92.45537367	      0.04983148	      0.96413810	      0.49674262	     16.42311034	     -2.03574790	     -8.03358143	     27.02102754	      0.47160590	     32.52506486	     -1.16435672	      0.00000000	      6.35792513	     -1.88460742	    -19.82996234	     13.44710773	      0.23469630	     38.66985257	     13.17443404	      0.00000000	     -0.39762735	      0.74393616	      0.27193336	     -0.73843376	      0.98943510	      0.28892919	     -0.65326198	      1.80880639	      0.28892919	     -0.45444830	      1.80880639	      0.23794169	     -0.36923676	      1.51703463	      0.22094585	     -0.22720427	      1.15235712	      0.20395002	     -2.84021242	      8.41555468	      1.51241175	      0.00000000	      0.00000000	    -20.65245824	      0.02946154	    -14.89749368	    -23.34797013	    -25.14904154	    -12.67241277	    139.36627505	     76.18739044	    -10.05110736	      1.92670663	     17.60603772	    -13.45235665	     24.97775175	    110.17271110	     64.62648592	      4.95227350	     21.60699411
      3.81666667	      2.95724570	     -5.48927088	     92.11917922	      0.05001163	      0.96392399	      0.49733720	     16.49145250	     -2.33200073	     -7.95673509	     26.87912479	      0.46912923	     33.39551653	      0.32086506	      0.00000000	      6.40716348	     -1.66967649	    -20.61059928	     13.40228872	      0.23391407	     38.85315348	     13.83517581	      0.00000000	     -0.42348264	      0.71484005	      0.19750673	     -0.78644962	      0.95073727	      0.20985090	     -0.69573963	      1.73806210	      0.20985090	     -0.48399831	      1.73806210	      0.17281839	     -0.39324598	      1.45770183	      0.16047422	     -0.24197798	      1.10728724	      0.14813005	     -3.02489417	      8.08641363	      1.09847319	      0.00000000	      0.00000000	    -20.44185403	      0.38268215	    -14.93042399	    -22.98735018	    -24.52781447	    -12.71624138	    139.57630240	     75.36803726	     -8.48124401	      1.99706868	     16.62802234	    -13.26229553	     24.45317836	    112.45204106	     63.46199279	      1.72010633	     19.83373318
      3.83333333	      2.82796465	     -5.71058551	     91.56321282	      0.05038684	      0.96373198	      0.49734899	     16.60543946	     -2.33919857	     -7.26284357	     26.59809582	      0.46422435	     33.95547509	      1.08952182	      0.00000000	      6.53302948	     -1.53613193	    -21.12931006	     13.32586633	      0.23258024	     38.86573310	     13.88057707	      0.00000000	     -0.41263105	      0.70075073	      0.17930099	     -0.76629712	      0.93199847	      0.19050730	     -0.67791155	      1.70380533	      0.19050730	     -0.47159602	      1.70380533	      0.15688836	     -0.38316919	      1.42897089	      0.14568205	     -0.23577738	      1.08546288	      0.13447574	     -2.94738231	      7.92703242	      0.99721829	      0.00000000	      0.00000000	    -20.43601698	      0.67525094	    -15.12316204	    -23.05675333	    -24.06546684	    -12.66181265	    137.44734385	     75.54371593	     -6.30922525	      2.09038682	     15.99114213	    -12.76121454	     24.02909660	    114.34661085	     63.46816234	     -0.17221942	     17.46022957
      3.85000000	      2.84028352	     -5.86755690	     91.28247997	      0.05052027	      0.96363505	      0.49732607	     16.53604417	     -2.23373366	     -6.74190450	     26.26186013	      0.45835593	     34.20841331	      1.45668068	      0.00000000	      6.72795983	     -1.54890039	    -21.01926517	     13.48163085	      0.23529885	     38.76978940	     13.50691569	      0.00000000	     -0.40015994	      0.69452005	      0.16253649	     -0.74313702	      0.92371167	      0.17269502	     -0.65742276	      1.68865606	      0.17269502	     -0.45734279	      1.68865606	      0.14221943	     -0.37158852	      1.41626529	      0.13206090	     -0.22865139	      1.07581156	      0.12190237	     -2.85830242	      7.85654975	      0.90397919	      0.00000000	      0.00000000	    -20.40165022	      1.25990098	    -15.95624795	    -23.11949188	    -23.99111198	    -11.93780271	    133.82343883	     75.61675107	     -5.93724885	      3.01747396	     16.42255691	    -12.24281296	     24.12795729	    114.83141610	     63.51573408	     -0.65609263	     16.79582397
      3.86666667	      2.34513935	     -5.92918597	     90.64964642	      0.05174525	      0.96370483	      0.49715997	     16.42605046	     -2.48206129	     -5.64841549	     26.04696501	      0.45460530	     34.28700658	      1.19634284	      0.00000000	      6.62848069	     -1.12846322	    -21.81423526	     13.43460193	      0.23447804	     38.29665844	     13.78907361	      0.00000000	     -0.39409716	      0.61916581	      0.07992947	     -0.73187783	      0.82349053	      0.08492507	     -0.64746222	      1.50543975	      0.08492507	     -0.45041364	      1.50543975	      0.06993829	     -0.36595862	      1.26260292	      0.06494270	     -0.22518711	      0.95908784	      0.05994711	     -2.81499658	      7.00412748	      0.44454376	      0.00000000	      0.00000000	    -20.50933381	      1.70395468	    -16.18595550	    -21.60517411	    -23.95948996	    -10.02106360	    128.95809503	     78.29092367	     -4.50786996	      5.62378929	     17.04043766	    -12.93321643	     24.74519536	    114.45029785	     65.40917085	     -3.63519955	     16.29842131
